<?xml version="1.0" standalone="no"?>
<!DOCTYPE svg PUBLIC "-//W3C//DTD SVG 20010904//EN"
 "http://www.w3.org/TR/2001/REC-SVG-20010904/DTD/svg10.dtd">
<svg version="1.0" xmlns="http://www.w3.org/2000/svg"
 width="300.000000pt" height="300.000000pt" viewBox="0 0 300.000000 300.000000"
 preserveAspectRatio="xMidYMid meet">
<metadata>
Created by potrace 1.11, written by Peter Selinger 2001-2013
</metadata>
<g transform="translate(0.000000,300.000000) scale(0.100000,-0.100000)"
fill="#000000" stroke="none">
<path d="M1250 2989 c-19 -4 -48 -10 -65 -13 -242 -42 -538 -202 -736 -397
-219 -217 -383 -525 -424 -797 -3 -21 -8 -49 -11 -62 -11 -42 -12 -332 -3
-395 5 -33 11 -71 13 -85 8 -56 41 -170 73 -257 134 -360 417 -667 768 -832
76 -36 249 -95 305 -105 19 -3 47 -8 61 -11 122 -23 387 -29 489 -10 246 46
420 113 598 229 313 204 540 519 632 875 38 146 45 205 45 386 0 174 -10 251
-51 400 -128 460 -487 846 -939 1008 -69 24 -150 46 -250 66 -60 12 -455 12
-505 0z m515 -104 c125 -26 252 -70 355 -122 104 -52 247 -145 304 -198 20
-18 36 -31 36 -28 0 2 18 -16 39 -41 21 -25 42 -42 45 -39 3 4 6 0 6 -7 0 -7
11 -23 26 -36 14 -13 21 -24 17 -24 -4 0 -3 -4 3 -8 22 -14 122 -171 157 -244
97 -204 139 -386 141 -603 1 -168 -5 -232 -34 -355 -28 -114 -54 -188 -104
-290 -51 -102 -194 -309 -197 -283 -4 38 -13 77 -31 127 -20 57 -55 126 -65
126 -2 0 -1 -6 3 -12 4 -7 -5 0 -19 15 -26 26 -193 114 -233 122 -10 2 -20 4
-21 4 -2 1 -6 2 -10 3 -5 0 -24 8 -43 16 -19 8 -37 14 -40 14 -3 1 -9 2 -15 4
-5 2 -38 10 -73 19 -34 9 -75 21 -90 27 -42 17 -52 17 -53 2 -1 -8 -2 -17 -3
-21 -1 -5 -6 -24 -10 -43 -13 -54 -52 -122 -93 -162 -36 -34 -123 -93 -123
-84 0 3 -15 -1 -32 -8 -64 -27 -240 -3 -284 39 -6 5 -30 26 -52 45 -23 19 -42
41 -42 49 0 8 -3 11 -7 7 -13 -12 -59 119 -62 176 -1 17 -27 18 -54 1 -6 -4
-16 -8 -22 -9 -5 -1 -37 -9 -70 -18 -33 -10 -67 -19 -75 -21 -8 -2 -16 -4 -17
-4 -2 -1 -6 -1 -10 -2 -5 0 -12 -4 -18 -9 -11 -9 -76 -25 -87 -22 -5 1 -8 -3
-8 -10 0 -6 -3 -8 -7 -5 -3 4 -17 0 -30 -8 -13 -9 -23 -13 -23 -10 0 8 -104
-48 -108 -57 -2 -5 -8 -8 -14 -8 -11 0 -69 -46 -68 -55 0 -3 -8 -14 -18 -26
-24 -25 -59 -147 -62 -214 l-1 -30 -35 40 c-146 164 -262 407 -309 645 -23
114 -27 349 -9 465 13 85 58 262 75 295 4 8 21 46 38 84 60 132 175 303 266
393 23 23 40 45 37 48 -3 3 0 5 6 5 6 0 17 6 24 13 7 7 31 26 53 42 22 17 42
32 45 35 18 20 151 99 235 140 207 100 395 140 635 136 97 -2 185 -10 235 -21z"/>
<path d="M1360 2551 c-77 -20 -148 -52 -184 -86 -14 -13 -26 -22 -26 -19 0 3
-20 -18 -45 -47 -25 -29 -45 -59 -45 -66 0 -7 -5 -13 -11 -13 -6 0 -9 -6 -6
-14 3 -8 3 -17 -1 -21 -4 -4 -8 -11 -8 -16 -1 -5 -2 -10 -4 -11 -1 -2 -4 -12
-6 -23 -18 -73 -20 -141 -10 -261 7 -81 7 -82 -18 -88 -25 -6 -39 -40 -40 -96
0 -39 23 -120 35 -120 5 0 8 -4 4 -9 -3 -5 5 -20 19 -34 26 -26 51 -68 48 -79
-1 -5 3 -8 8 -8 5 0 9 -3 8 -7 -3 -11 43 -97 56 -105 6 -5 7 -8 1 -8 -6 0 -6
-3 1 -8 6 -4 24 -27 41 -52 96 -140 261 -218 398 -187 72 16 125 37 125 50 0
4 5 5 10 2 6 -3 10 -2 10 4 0 5 8 12 19 16 24 7 112 95 106 105 -3 4 2 10 10
14 8 3 15 12 15 21 0 8 5 15 10 15 6 0 10 6 10 14 0 8 4 16 9 18 11 4 94 158
85 158 -4 0 3 9 16 20 65 57 96 209 52 261 -9 10 -24 19 -34 19 -12 0 -16 6
-13 23 2 12 7 40 10 62 12 71 7 232 -7 241 -5 3 -6 9 -3 14 3 5 1 19 -5 30 -6
12 -13 31 -15 42 -3 12 -10 25 -16 28 -6 4 -10 10 -10 14 3 20 0 26 -9 21 -5
-3 -10 0 -10 7 0 25 -116 120 -184 151 -99 45 -276 58 -396 28z m392 -361 c50
-19 137 -70 138 -82 0 -4 11 -18 24 -31 21 -21 23 -31 20 -88 -2 -35 -8 -89
-13 -119 -10 -63 -7 -74 10 -36 16 33 51 35 68 2 22 -41 -5 -142 -50 -187 -15
-15 -48 -76 -53 -99 -5 -18 -80 -150 -101 -175 -86 -105 -143 -134 -279 -140
-58 -3 -91 4 -151 30 -16 8 -33 14 -37 14 -13 2 -95 86 -91 94 2 4 -1 7 -6 7
-6 0 -11 7 -11 15 0 9 -7 18 -15 21 -8 4 -13 10 -10 14 3 4 -1 13 -9 19 -8 7
-17 23 -20 36 -4 14 -10 25 -15 25 -5 0 -12 14 -16 30 -4 17 -11 30 -17 30 -6
0 -9 3 -5 6 7 7 -19 61 -40 82 -24 25 -44 72 -50 120 -4 39 -2 50 15 65 26 24
56 10 70 -33 6 -16 13 -30 16 -30 3 0 1 11 -4 25 -15 40 -20 73 -25 173 -4 87
-3 95 23 137 30 50 30 50 87 33 22 -6 43 -12 46 -12 16 -2 103 -53 125 -72 13
-13 24 -20 24 -17 0 3 20 -16 44 -42 24 -26 46 -44 49 -39 10 18 -2 126 -17
149 l-16 24 48 -15 c26 -9 55 -18 65 -21 9 -3 17 -9 17 -14 0 -5 6 -9 14 -9
15 0 76 -45 124 -92 l34 -33 -7 35 c-10 45 -58 149 -82 175 -48 52 -48 54 -6
48 21 -3 59 -14 85 -23z"/>
</g>
</svg>
